<svg id="Gradient" height="512" viewBox="0 0 512 512" width="512" xmlns="http://www.w3.org/2000/svg" xmlns:xlink="http://www.w3.org/1999/xlink"><linearGradient id="linear-gradient" gradientUnits="userSpaceOnUse" x1="256" x2="256" y1="496" y2="16"><stop offset="0" stop-color="#12c2e9"/><stop offset=".5" stop-color="#c471ed"/><stop offset="1" stop-color="#f64f59"/></linearGradient><path d="m349.657 18.343a8 8 0 0 0 -5.657-2.343h-224a56.063 56.063 0 0 0 -56 56v368a56.063 56.063 0 0 0 56 56h272a56.063 56.063 0 0 0 56-56v-320a8 8 0 0 0 -2.343-5.657zm2.343 24.97 68.687 68.687h-28.687a40.045 40.045 0 0 1 -40-40zm-232-11.313h216v40a56.063 56.063 0 0 0 56 56h40v224h-352v-280a40.045 40.045 0 0 1 40-40zm272 448h-272a40.045 40.045 0 0 1 -40-40v-72h352v72a40.045 40.045 0 0 1 -40 40zm-144-88v48a24 24 0 0 1 -48 0 8 8 0 0 1 16 0 8 8 0 0 0 16 0v-48a8 8 0 0 1 16 0zm32 16a8.009 8.009 0 0 0 8 8 24 24 0 0 1 0 48h-16a8 8 0 0 1 0-16h16a8 8 0 0 0 0-16 24 24 0 0 1 0-48h16a8 8 0 0 1 0 16h-16a8.009 8.009 0 0 0 -8 8zm0-192a8 8 0 1 1 8 8 8 8 0 0 1 -8-8zm-64 0a8 8 0 1 1 8 8 8 8 0 0 1 -8-8zm32 0a8 8 0 1 1 8 8 8 8 0 0 1 -8-8zm-104 0a8 8 0 0 1 8-8 8.009 8.009 0 0 0 8-8v-32a24.028 24.028 0 0 1 24-24 8 8 0 0 1 0 16 8.009 8.009 0 0 0 -8 8v32a23.9 23.9 0 0 1 -6.126 16 23.9 23.9 0 0 1 6.126 16v32a8.009 8.009 0 0 0 8 8 8 8 0 0 1 0 16 24.028 24.028 0 0 1 -24-24v-32a8.009 8.009 0 0 0 -8-8 8 8 0 0 1 -8-8zm192 16a23.9 23.9 0 0 1 6.126-16 23.9 23.9 0 0 1 -6.126-16v-32a8.009 8.009 0 0 0 -8-8 8 8 0 0 1 0-16 24.028 24.028 0 0 1 24 24v32a8.009 8.009 0 0 0 8 8 8 8 0 0 1 0 16 8.009 8.009 0 0 0 -8 8v32a24.028 24.028 0 0 1 -24 24 8 8 0 0 1 0-16 8.009 8.009 0 0 0 8-8z" fill="url(#linear-gradient)"/></svg>